<svg xmlns="http://www.w3.org/2000/svg" viewBox="0 0 801.9 183.71"><defs><style>.a{fill:#92d62e;}.b{fill:#fff;}</style></defs><path class="a" d="M269,58.09a91.86,91.86,0,1,1-91.81,91.79A91.77,91.77,0,0,1,269,58.09Zm-38.25,82c-4.21-2.85-6.74-3.78-9.81-3.63a13.61,13.61,0,0,0-12.72,10.28,13.35,13.35,0,0,0,6.33,14.9c.92.54,1,1.09,1,2.09a38.75,38.75,0,0,0,.41,7.85c1.56,7.94,6.15,14.07,12.33,19,10.36,8.33,22.46,12,35.51,13a71.87,71.87,0,0,0,29.87-3.89c9.15-3.27,17.25-8.14,23.21-16,4.55-6,6.86-12.74,6-20.35-.14-1.13.47-1.39,1.18-1.82a13.61,13.61,0,0,0,4.34-19.13,13.36,13.36,0,0,0-19.25-3.4c-1.2.91-1.9.72-3,0a62.07,62.07,0,0,0-24.59-9.29c-3.09-.49-6.22-.8-9.47-1.21,2-9.46,4-18.81,6.06-28.29,6.1,1.31,12,2.61,17.85,3.8a2.42,2.42,0,0,1,2.2,2.19,9.68,9.68,0,0,0,10.47,7.43,9.79,9.79,0,0,0,8.56-9.25,9.61,9.61,0,0,0-6.41-9.5,9.5,9.5,0,0,0-11.06,3.44c-.54.74-1,1.29-2.1,1-6.5-1.43-13-2.77-19.55-4.16-3.17-.68-3.87-.28-4.54,2.83-2,9.6-4.1,19.2-6.05,28.83-.33,1.59-1,2-2.55,2.14a76.47,76.47,0,0,0-8.55.9A62.8,62.8,0,0,0,230.75,140.09Z" transform="translate(-177.19 -58.09)"/><path d="M531.35,127.25v-2q0-13,0-26a7.24,7.24,0,0,1,2-5.61,6.54,6.54,0,0,1,11.11,4,10.1,10.1,0,0,1,0,1.23q0,41.81,0,83.6c0,3.4-1.69,5.83-4.59,6.7-3.7,1.11-6.68-.57-8.31-4.4-3,1.64-5.92,3.79-9.17,4.85-9.54,3.1-18.38.95-26-5.24-9.85-8-13.84-18.7-13-31.24a34.82,34.82,0,0,1,13.26-25.89c8.55-6.9,20.93-8.31,29.64-3.41C527.92,124.71,529.43,125.93,531.35,127.25ZM533,156.11a25.48,25.48,0,0,0-4.1-14.05c-6.25-9.3-17.24-10.91-25.25-3.71-9.82,8.82-9.6,26.9.44,35.46a15.76,15.76,0,0,0,21.41-.27C530.71,168.81,532.72,162.69,533,156.11Z" transform="translate(-177.19 -58.09)"/><path d="M600.12,127.4c0-9.7,0-19.07,0-28.44a6.86,6.86,0,0,1,1.93-5.27,6.19,6.19,0,0,1,7-1.49,5.94,5.94,0,0,1,4.14,5.74c0,1.63,0,3.27,0,4.91V182.1c0,3.81-1.53,6.15-4.54,7.05-3.67,1.09-6.68-.57-8.43-4.72a2.15,2.15,0,0,0-.6.24c-8.73,8.28-21.89,7.76-31.14,2-9.9-6.14-15.17-15.34-16.27-26.73-1.28-13.28,2.91-24.62,13.61-33,8.89-7,21.57-8,30.28-2.46C597.39,125.29,598.6,126.29,600.12,127.4Zm1.46,28.84A25.27,25.27,0,0,0,597,141.38c-6.62-9.2-18.38-10-26-1.74-8,8.71-8,24.17.17,32.78,6.68,7.05,16.41,7.39,23.45.71C599.56,168.46,601.4,162.49,601.58,156.24Z" transform="translate(-177.19 -58.09)"/><path d="M429.71,160.38c1.31,11.36,13.09,22.78,27.38,14.77a42.22,42.22,0,0,0,5.06-3.76c4.09-3.2,9.4-1.93,10.92,2.66a6.55,6.55,0,0,1-1.56,6.83c-5.26,5.82-11.89,8.83-19.62,9.81-15.77,2-28.86-7.91-33.51-21.76-4.89-14.54-2.6-28,8.33-39.11,13-13.18,33.4-11.44,44.5,3.37A34.65,34.65,0,0,1,478.32,151c.52,5.57-3.62,9.35-9.2,9.24-13-.25-26.1-.05-39.15,0C429.92,160.25,429.87,160.3,429.71,160.38Zm34.69-11.59c-1.54-8.24-10.27-15.28-18-14.64s-16,8.23-16,14.64Z" transform="translate(-177.19 -58.09)"/><path d="M662.75,123.75c0-3.22,0-6.14,0-9.06,0-4.06,2.51-6.84,6.27-7.06,3.58-.21,6.54,2.57,6.79,6.57.16,2.45.05,4.91.06,7.37v2.09h5.44c3.72,0,6.35,2.42,6.39,5.79s-2.61,5.79-6.33,5.84c-1.74,0-3.48,0-5.4,0,0,.9-.1,1.64-.1,2.37q0,22.85,0,45.67c0,4.13-1.9,6.71-5.46,7.48a6.4,6.4,0,0,1-7.66-5.4,19.23,19.23,0,0,1-.08-2.28V135.47c-1.83,0-3.5,0-5.17,0a5.92,5.92,0,0,1-5.71-3.38c-1.84-3.83.89-8.09,5.33-8.31C658.91,123.68,660.71,123.75,662.75,123.75Z" transform="translate(-177.19 -58.09)"/><path d="M387.55,131.17a27.55,27.55,0,0,1,10.05-7,26.11,26.11,0,0,1,12.58-1.53c3,.33,5.3,1.78,6.18,4.89A5.92,5.92,0,0,1,414,134.3a7.42,7.42,0,0,1-4.4,1.28c-12.64-1.44-22.19,8.52-22.2,21.08q0,13.62,0,27.23c0,3.58-1.73,6-4.87,6.83a6.48,6.48,0,0,1-8.11-5.41,14.63,14.63,0,0,1-.07-1.75q0-26.26,0-52.52c0-2.84,1-5.06,3.48-6.4a6.48,6.48,0,0,1,9.47,4.6C387.4,129.75,387.44,130.27,387.55,131.17Z" transform="translate(-177.19 -58.09)"/><path d="M642.43,160.29q0,11.6,0,23.18a7.14,7.14,0,0,1-1.6,5.23,6.54,6.54,0,0,1-11.31-3,9.53,9.53,0,0,1-.18-1.92q0-23.44,0-46.88c0-3.93,2.07-6.52,5.62-7.14a6.45,6.45,0,0,1,7.34,5.43,23,23,0,0,1,.12,2.62Q642.43,149.06,642.43,160.29Z" transform="translate(-177.19 -58.09)"/><path class="a" d="M624.42,109a11.51,11.51,0,0,1,23,.05,11.51,11.51,0,1,1-23-.05Z" transform="translate(-177.19 -58.09)"/><path class="b" d="M464.4,147h-34c.05-6.41,8.4-14,16-14.64S462.86,138.75,464.4,147Z" transform="translate(-177.19 -58.09)"/><path class="a" d="M317,139.69a9.46,9.46,0,0,1,9.43,9.32,9.6,9.6,0,0,1-9.51,9.47,9.39,9.39,0,0,1-9.35-9.38A9.26,9.26,0,0,1,317,139.69Z" transform="translate(-177.19 -58.09)"/><path class="a" d="M221.35,159.31a9.13,9.13,0,0,1-9.39-9.25,9.24,9.24,0,0,1,9.39-9.48,9.46,9.46,0,0,1,9.41,9.4A9.34,9.34,0,0,1,221.35,159.31Z" transform="translate(-177.19 -58.09)"/><path class="a" d="M269.12,191.67c-6.68-.08-13.19-1-19.1-4.34a18.86,18.86,0,0,1-3.46-2.66,2.09,2.09,0,0,1-.08-3.14,2.12,2.12,0,0,1,3.15-.29c3.94,3.56,8.78,4.73,13.81,5.41a38.25,38.25,0,0,0,21.28-2.71,19.81,19.81,0,0,0,3.61-2.42c1.21-.91,2.66-1,3.48-.11a2.59,2.59,0,0,1-.34,3.63,18.36,18.36,0,0,1-8.69,4.7c-4.48,1-9,1.63-13.57,2.42Z" transform="translate(-177.19 -58.09)"/><path class="a" d="M862.44,127.25v-2q0-13,0-26a7.28,7.28,0,0,0-2-5.61,6.54,6.54,0,0,0-11.11,4,10.11,10.11,0,0,0,0,1.23q0,41.81,0,83.6c0,3.4,1.69,5.83,4.59,6.7,3.7,1.11,6.68-.57,8.31-4.4,3,1.64,5.92,3.79,9.17,4.85,9.54,3.1,18.38.95,26-5.24,9.85-8,13.84-18.7,13-31.24a34.82,34.82,0,0,0-13.26-25.89c-8.55-6.9-20.93-8.31-29.64-3.41C865.87,124.71,864.35,125.93,862.44,127.25Zm-1.62,28.86a25.56,25.56,0,0,1,4.09-14.05c6.26-9.3,17.25-10.91,25.26-3.71,9.82,8.82,9.6,26.9-.44,35.46a15.76,15.76,0,0,1-21.41-.27C863.08,168.81,861.07,162.69,860.82,156.11Z" transform="translate(-177.19 -58.09)"/><path class="a" d="M794.89,127.25v-2q0-13,0-26a7.28,7.28,0,0,0-2-5.61,6.54,6.54,0,0,0-11.11,4,10.11,10.11,0,0,0,0,1.23q0,41.81,0,83.6c0,3.4,1.69,5.83,4.59,6.7,3.7,1.11,6.67-.57,8.31-4.4,3,1.64,5.92,3.79,9.17,4.85,9.54,3.1,18.38.95,26-5.24,9.86-8,13.85-18.7,13-31.24a34.82,34.82,0,0,0-13.26-25.89c-8.55-6.9-20.93-8.31-29.64-3.41C798.32,124.71,796.8,125.93,794.89,127.25Zm-1.62,28.86a25.56,25.56,0,0,1,4.09-14.05c6.26-9.3,17.25-10.91,25.26-3.71,9.82,8.82,9.6,26.9-.44,35.46a15.76,15.76,0,0,1-21.41-.27C795.53,168.81,793.52,162.69,793.27,156.11Z" transform="translate(-177.19 -58.09)"/><path class="a" d="M954.13,123.75c0-3.22,0-6.14,0-9.06,0-4.06,2.5-6.84,6.27-7.06,3.57-.21,6.53,2.57,6.79,6.57.15,2.45,0,4.91,0,7.37v2.09h5.44c3.72,0,6.35,2.42,6.4,5.79s-2.61,5.79-6.33,5.84c-1.75,0-3.49,0-5.4,0,0,.9-.11,1.64-.11,2.37q0,22.85,0,45.67c0,4.13-1.91,6.71-5.47,7.48a6.4,6.4,0,0,1-7.66-5.4,19.23,19.23,0,0,1-.07-2.28q0-22.65,0-45.31v-2.35c-1.83,0-3.51,0-5.18,0a5.92,5.92,0,0,1-5.7-3.38c-1.84-3.83.88-8.09,5.32-8.31C950.29,123.68,952.1,123.75,954.13,123.75Z" transform="translate(-177.19 -58.09)"/><path class="a" d="M933.81,160.29c0,7.73,0,15.45,0,23.18a7.19,7.19,0,0,1-1.61,5.23,6.53,6.53,0,0,1-11.3-3,8.87,8.87,0,0,1-.19-1.92q0-23.44,0-46.88c0-3.93,2.07-6.52,5.62-7.14a6.45,6.45,0,0,1,7.34,5.43,25.53,25.53,0,0,1,.13,2.62Z" transform="translate(-177.19 -58.09)"/><path d="M915.8,110.05a11.51,11.51,0,0,1,23,0,11.51,11.51,0,1,1-23,0Z" transform="translate(-177.19 -58.09)"/><path class="a" d="M763.57,160.29c0,7.73,0,15.45,0,23.18A7.19,7.19,0,0,1,762,188.7a6.53,6.53,0,0,1-11.3-3,8.86,8.86,0,0,1-.18-1.92q0-23.44,0-46.88c0-3.93,2.07-6.52,5.63-7.14a6.44,6.44,0,0,1,7.33,5.43,20.9,20.9,0,0,1,.13,2.62Q763.59,149.06,763.57,160.29Z" transform="translate(-177.19 -58.09)"/><path d="M745.56,110.05a11.51,11.51,0,0,1,23,0,11.51,11.51,0,1,1-23,0Z" transform="translate(-177.19 -58.09)"/><path class="a" d="M710.38,131.17a27.55,27.55,0,0,1,10-7A26.15,26.15,0,0,1,733,122.59c3,.33,5.3,1.78,6.18,4.89a5.92,5.92,0,0,1-2.33,6.82,7.45,7.45,0,0,1-4.41,1.28c-12.64-1.44-22.19,8.52-22.19,21.08q0,13.62,0,27.23c0,3.58-1.74,6-4.88,6.83a6.48,6.48,0,0,1-8.11-5.41,14.62,14.62,0,0,1-.06-1.75c0-17.51,0-35,0-52.52,0-2.84,1-5.06,3.49-6.4a6.48,6.48,0,0,1,9.47,4.6C710.24,129.75,710.27,130.27,710.38,131.17Z" transform="translate(-177.19 -58.09)"/></svg>