<svg xmlns="http://www.w3.org/2000/svg" viewBox="0 0 534.84 211.03"><defs><style>.a{fill:#fff;}.b{fill:#92d62e;}</style></defs><path class="a" d="M32.91,403.67V219.19H567.75V403.67Zm92.22-184.15a91.86,91.86,0,1,0,91.93,91.84A91.77,91.77,0,0,0,125.13,219.52ZM411.2,299.29c-1.92-1.31-3.43-2.53-5.1-3.47-8.72-4.91-21.09-3.49-29.64,3.41a34.82,34.82,0,0,0-13.26,25.89c-.82,12.54,3.18,23.24,13,31.23,7.64,6.2,16.48,8.34,26,5.24,3.25-1,6.14-3.21,9.17-4.84,1.63,3.83,4.6,5.51,8.31,4.39,2.9-.87,4.59-3.29,4.59-6.7q0-41.79,0-83.59a10.06,10.06,0,0,0,0-1.23,6.54,6.54,0,0,0-11.11-4,7.23,7.23,0,0,0-2,5.61q0,13,0,26Zm68.77.11c-1.52-1.12-2.73-2.11-4-2.94-8.71-5.5-21.39-4.55-30.28,2.45C435,307.34,430.76,318.69,432,332c1.1,11.39,6.36,20.59,16.27,26.73,9.25,5.73,22.41,6.24,31.14-2a1.68,1.68,0,0,1,.6-.24c1.75,4.15,4.75,5.81,8.43,4.71,3-.9,4.54-3.24,4.54-7.05V274.85c0-1.64,0-3.28,0-4.92a6,6,0,0,0-4.14-5.74,6.22,6.22,0,0,0-7,1.49A6.91,6.91,0,0,0,480,271C480,280.33,480,289.7,480,299.4ZM309.56,332.25c.16-.08.21-.13.26-.13,13.05,0,26.11-.23,39.15,0,5.58.11,9.72-3.67,9.2-9.24a34.65,34.65,0,0,0-7.11-17.84c-11.1-14.81-31.55-16.55-44.5-3.37-10.93,11.11-13.22,24.58-8.33,39.12,4.65,13.84,17.74,23.77,33.51,21.76,7.73-1,14.36-4,19.62-9.82a6.55,6.55,0,0,0,1.56-6.83c-1.52-4.59-6.83-5.86-10.92-2.66a42.22,42.22,0,0,1-5.06,3.76C322.65,355,310.87,343.61,309.56,332.25Zm233-37.8c-2,0-3.84-.07-5.64,0-4.45.22-7.17,4.48-5.33,8.32a5.92,5.92,0,0,0,5.71,3.38c1.67,0,3.34,0,5.17,0v47.67a17.32,17.32,0,0,0,.08,2.28,6.4,6.4,0,0,0,7.66,5.4c3.55-.78,5.46-3.35,5.46-7.49q0-22.83,0-45.66c0-.73.06-1.47.1-2.37,1.92,0,3.66,0,5.4,0,3.72-.05,6.38-2.52,6.33-5.84s-2.68-5.76-6.39-5.79c-1.74,0-3.48,0-5.44,0v-2.09c0-2.46.1-4.92-.06-7.37-.25-4-3.21-6.78-6.79-6.57-3.76.22-6.25,3-6.27,7.06C542.59,288.31,542.6,291.23,542.6,294.45Zm-275.2,7.21c-.11-.89-.15-1.42-.25-1.93a6.47,6.47,0,0,0-9.47-4.59c-2.52,1.33-3.49,3.55-3.48,6.39q.06,26.27,0,52.52a14.63,14.63,0,0,0,.07,1.75,6.48,6.48,0,0,0,8.11,5.42c3.14-.88,4.87-3.26,4.87-6.84q0-13.61,0-27.22c0-12.57,9.56-22.53,22.2-21.08a7.5,7.5,0,0,0,4.4-1.29,5.91,5.91,0,0,0,2.33-6.81c-.88-3.11-3.16-4.57-6.18-4.89a26,26,0,0,0-12.59,1.52A27.6,27.6,0,0,0,267.4,301.66ZM522.28,330.8q0-11.24,0-22.48a23,23,0,0,0-.12-2.63,6.46,6.46,0,0,0-7.34-5.43c-3.55.63-5.62,3.22-5.62,7.14q0,23.44,0,46.89a9.37,9.37,0,0,0,.18,1.91,6.53,6.53,0,0,0,11.31,3,7.11,7.11,0,0,0,1.6-5.22C522.26,346.25,522.28,338.52,522.28,330.8Zm-18-48.15a11.51,11.51,0,1,0,11.51-11.44A11.48,11.48,0,0,0,504.27,282.65Z" transform="translate(-32.91 -194.22)"/><path class="b" d="M125.13,219.52a91.86,91.86,0,1,1-91.81,91.79A91.77,91.77,0,0,1,125.13,219.52Zm-38.25,82c-4.22-2.85-6.74-3.78-9.81-3.63a13.61,13.61,0,0,0-12.72,10.28,13.35,13.35,0,0,0,6.33,14.9c.92.54,1,1.09,1,2.09a38.75,38.75,0,0,0,.41,7.85c1.56,7.94,6.14,14.07,12.33,19,10.36,8.33,22.46,12,35.51,13a71.87,71.87,0,0,0,29.87-3.89c9.15-3.27,17.25-8.14,23.21-16,4.55-6,6.86-12.74,6-20.35-.13-1.13.48-1.39,1.19-1.82a13.61,13.61,0,0,0,4.34-19.13,13.36,13.36,0,0,0-19.25-3.4c-1.2.91-1.9.72-3,0a62.07,62.07,0,0,0-24.59-9.29c-3.09-.49-6.22-.8-9.47-1.21,2-9.46,4-18.81,6.06-28.29,6.1,1.31,12,2.61,17.85,3.8a2.42,2.42,0,0,1,2.2,2.19,9.68,9.68,0,0,0,10.47,7.43,9.79,9.79,0,0,0,8.56-9.25,9.61,9.61,0,0,0-6.41-9.5,9.5,9.5,0,0,0-11.06,3.44c-.54.74-1,1.29-2.1,1-6.5-1.43-13-2.77-19.55-4.16-3.17-.68-3.88-.28-4.54,2.83-2,9.6-4.1,19.2-6,28.83-.33,1.59-1,2.05-2.55,2.14a76.47,76.47,0,0,0-8.55.9A62.8,62.8,0,0,0,86.88,301.52Z" transform="translate(-32.91 -194.22)"/><path d="M396.89,229.8v-2q0-13,0-26a7.29,7.29,0,0,1,2-5.61,6.55,6.55,0,0,1,11.11,4,9.88,9.88,0,0,1,0,1.22q0,41.81,0,83.6c0,3.41-1.69,5.83-4.59,6.7-3.7,1.11-6.68-.56-8.31-4.4-3,1.64-5.92,3.8-9.17,4.85-9.54,3.1-18.38.95-26-5.24-9.85-8-13.84-18.7-13-31.23a34.8,34.8,0,0,1,13.26-25.89c8.55-6.91,20.93-8.32,29.64-3.41C393.46,227.27,395,228.48,396.89,229.8Zm1.62,28.86a25.53,25.53,0,0,0-4.1-14.05c-6.25-9.29-17.24-10.9-25.25-3.71-9.82,8.83-9.6,26.91.44,35.47A15.77,15.77,0,0,0,391,276.1C396.25,271.36,398.26,265.24,398.51,258.66Z" transform="translate(-32.91 -194.22)"/><path d="M465.67,229.9c0-9.7,0-19.06,0-28.43a6.9,6.9,0,0,1,1.93-5.28,6.21,6.21,0,0,1,7-1.49,5.94,5.94,0,0,1,4.14,5.74c0,1.64,0,3.28,0,4.92V284.6c0,3.81-1.53,6.15-4.54,7-3.67,1.09-6.68-.56-8.43-4.72a1.75,1.75,0,0,0-.59.25c-8.74,8.27-21.9,7.75-31.15,2-9.9-6.13-15.17-15.34-16.27-26.73-1.27-13.28,2.91-24.62,13.61-33.05,8.89-7,21.57-8,30.28-2.46C462.93,227.79,464.14,228.79,465.67,229.9Zm1.45,28.85a25.28,25.28,0,0,0-4.56-14.87c-6.62-9.2-18.38-10-26-1.74-8.05,8.72-8,24.17.17,32.78,6.68,7.06,16.41,7.4,23.45.72C465.1,271,466.94,265,467.12,258.75Z" transform="translate(-32.91 -194.22)"/><path d="M295.25,262.76c1.31,11.36,13.09,22.77,27.38,14.76a42.41,42.41,0,0,0,5.06-3.75c4.09-3.2,9.4-1.94,10.92,2.66a6.54,6.54,0,0,1-1.56,6.83c-5.26,5.81-11.89,8.83-19.62,9.81-15.77,2-28.86-7.91-33.51-21.76-4.89-14.54-2.59-28,8.33-39.11,12.95-13.18,33.4-11.44,44.5,3.37a34.65,34.65,0,0,1,7.11,17.84c.53,5.57-3.62,9.35-9.2,9.24-13-.26-26.1,0-39.15,0C295.46,262.63,295.41,262.68,295.25,262.76Zm34.69-11.59c-1.54-8.24-10.27-15.28-18-14.64s-16,8.22-16,14.64Z" transform="translate(-32.91 -194.22)"/><path d="M528.29,225c0-3.22,0-6.15,0-9.07,0-4,2.51-6.84,6.27-7.06,3.58-.2,6.54,2.57,6.79,6.57.16,2.45,0,4.92.06,7.38v2.08c2,0,3.7,0,5.44,0,3.72,0,6.35,2.42,6.39,5.79s-2.61,5.78-6.32,5.83c-1.75,0-3.49,0-5.41,0,0,.9-.1,1.63-.1,2.37q0,22.83,0,45.66c0,4.13-1.9,6.71-5.46,7.49a6.41,6.41,0,0,1-7.66-5.4,19.23,19.23,0,0,1-.07-2.28q0-22.66,0-45.31v-2.36c-1.83,0-3.5,0-5.17,0a5.91,5.91,0,0,1-5.7-3.39c-1.85-3.83.88-8.09,5.32-8.31C524.45,224.88,526.25,225,528.29,225Z" transform="translate(-32.91 -194.22)"/><path d="M253.09,232.16a27.64,27.64,0,0,1,10-7,26.11,26.11,0,0,1,12.58-1.53c3,.32,5.3,1.78,6.18,4.89a5.92,5.92,0,0,1-2.33,6.82,7.49,7.49,0,0,1-4.4,1.28c-12.64-1.44-22.19,8.52-22.2,21.08q0,13.62,0,27.23c0,3.58-1.73,6-4.87,6.83a6.48,6.48,0,0,1-8.11-5.41,14.63,14.63,0,0,1-.07-1.75q0-26.26,0-52.52c0-2.84,1-5.06,3.48-6.4a6.48,6.48,0,0,1,9.47,4.6C252.94,230.75,253,231.27,253.09,232.16Z" transform="translate(-32.91 -194.22)"/><path d="M508,261.3q0,11.59,0,23.18a7.13,7.13,0,0,1-1.6,5.23,6.54,6.54,0,0,1-11.31-3,9.47,9.47,0,0,1-.18-1.92q0-23.43,0-46.88c0-3.93,2.07-6.51,5.62-7.14a6.45,6.45,0,0,1,7.34,5.43,23,23,0,0,1,.12,2.63Q508,250.07,508,261.3Z" transform="translate(-32.91 -194.22)"/><path class="b" d="M490,213.16a11.51,11.51,0,0,1,23,.06,11.51,11.51,0,0,1-23-.06Z" transform="translate(-32.91 -194.22)"/><path class="a" d="M398.51,258.66c-.25,6.58-2.26,12.7-7.5,17.44a15.77,15.77,0,0,1-21.41.27c-10-8.56-10.26-26.64-.44-35.47,8-7.19,19-5.58,25.25,3.71A25.53,25.53,0,0,1,398.51,258.66Z" transform="translate(-32.91 -194.22)"/><path class="a" d="M467.12,258.75c-.18,6.24-2,12.21-6.94,16.89-7,6.68-16.77,6.34-23.45-.72-8.13-8.61-8.22-24.06-.17-32.78,7.62-8.25,19.38-7.46,26,1.74A25.28,25.28,0,0,1,467.12,258.75Z" transform="translate(-32.91 -194.22)"/><path class="a" d="M329.94,251.17h-34c.05-6.42,8.4-14,16-14.64S328.4,242.93,329.94,251.17Z" transform="translate(-32.91 -194.22)"/><path class="b" d="M173.13,301.12a9.46,9.46,0,0,1,9.43,9.32,9.6,9.6,0,0,1-9.51,9.47,9.41,9.41,0,0,1-9.36-9.38A9.28,9.28,0,0,1,173.13,301.12Z" transform="translate(-32.91 -194.22)"/><path class="b" d="M77.48,320.74a9.13,9.13,0,0,1-9.39-9.25A9.24,9.24,0,0,1,77.48,302a9.46,9.46,0,0,1,9.41,9.39A9.35,9.35,0,0,1,77.48,320.74Z" transform="translate(-32.91 -194.22)"/><path class="b" d="M125.25,353.1c-6.68-.08-13.19-1-19.1-4.34a18.86,18.86,0,0,1-3.46-2.66,2.09,2.09,0,0,1-.08-3.14,2.12,2.12,0,0,1,3.15-.29c3.94,3.56,8.78,4.73,13.81,5.41a38.25,38.25,0,0,0,21.28-2.71,19.81,19.81,0,0,0,3.61-2.42c1.21-.91,2.66-1,3.48-.11a2.6,2.6,0,0,1-.34,3.63,18.36,18.36,0,0,1-8.69,4.7c-4.48,1-9,1.63-13.57,2.42Z" transform="translate(-32.91 -194.22)"/><path d="M422.81,341.54v-2q0-13,0-26a7.29,7.29,0,0,0-2-5.61,6.55,6.55,0,0,0-11.11,4,8.25,8.25,0,0,0,0,1.22v83.6c0,3.41,1.7,5.83,4.6,6.7,3.7,1.11,6.67-.56,8.3-4.4,3,1.64,5.92,3.8,9.17,4.85,9.54,3.1,18.38,1,26-5.24,9.85-8,13.85-18.7,13-31.23a34.8,34.8,0,0,0-13.26-25.89c-8.56-6.91-20.93-8.32-29.64-3.41C426.25,339,424.73,340.22,422.81,341.54Zm-1.62,28.86a25.61,25.61,0,0,1,4.1-14c6.26-9.29,17.25-10.9,25.25-3.71,9.83,8.83,9.6,26.91-.44,35.47a15.76,15.76,0,0,1-21.4-.27C423.46,383.1,421.44,377,421.19,370.4Z" transform="translate(-32.91 -194.22)"/><path d="M355.26,341.54v-2q0-13,0-26a7.33,7.33,0,0,0-2-5.61,6.55,6.55,0,0,0-11.11,4,8.25,8.25,0,0,0,0,1.22q0,41.81,0,83.6c0,3.41,1.69,5.83,4.6,6.7,3.7,1.11,6.67-.56,8.3-4.4,3,1.64,5.92,3.8,9.17,4.85,9.54,3.1,18.38,1,26-5.24,9.85-8,13.85-18.7,13-31.23A34.81,34.81,0,0,0,390,341.48c-8.55-6.91-20.92-8.32-29.64-3.41C358.69,339,357.18,340.22,355.26,341.54Zm-1.62,28.86a25.53,25.53,0,0,1,4.1-14c6.26-9.29,17.25-10.9,25.25-3.71,9.83,8.83,9.6,26.91-.44,35.47a15.76,15.76,0,0,1-21.4-.27C355.91,383.1,353.89,377,353.64,370.4Z" transform="translate(-32.91 -194.22)"/><path d="M514.51,338.05c0-3.22,0-6.15,0-9.07,0-4.06,2.51-6.84,6.27-7.06,3.58-.21,6.54,2.57,6.79,6.57.16,2.45,0,4.92.06,7.38V338h5.44c3.72,0,6.35,2.42,6.39,5.79s-2.61,5.79-6.33,5.84c-1.74,0-3.48,0-5.4,0,0,.89-.1,1.63-.1,2.37q0,22.83,0,45.66c0,4.13-1.91,6.71-5.46,7.48a6.39,6.39,0,0,1-7.66-5.39,17.38,17.38,0,0,1-.08-2.28V349.76c-1.83,0-3.5,0-5.17,0a5.91,5.91,0,0,1-5.71-3.38c-1.84-3.83.89-8.09,5.33-8.31C510.67,338,512.47,338.05,514.51,338.05Z" transform="translate(-32.91 -194.22)"/><path d="M494.19,374.58c0,7.73,0,15.46,0,23.18,0,1.93-.23,3.77-1.6,5.23a6.54,6.54,0,0,1-11.31-3,9.44,9.44,0,0,1-.18-1.91q0-23.44,0-46.89c0-3.93,2.07-6.51,5.62-7.14a6.45,6.45,0,0,1,7.34,5.43,23,23,0,0,1,.12,2.63Q494.2,363.35,494.19,374.58Z" transform="translate(-32.91 -194.22)"/><path class="b" d="M476.18,324.34a11.51,11.51,0,0,1,23,.06,11.51,11.51,0,0,1-23-.06Z" transform="translate(-32.91 -194.22)"/><path d="M324,374.58c0,7.73,0,15.46,0,23.18,0,1.93-.24,3.77-1.61,5.23a6.53,6.53,0,0,1-11.3-3,8.78,8.78,0,0,1-.19-1.91q0-23.44,0-46.89c0-3.93,2.07-6.51,5.62-7.14a6.45,6.45,0,0,1,7.34,5.43,23,23,0,0,1,.12,2.63Q324,363.35,324,374.58Z" transform="translate(-32.91 -194.22)"/><path class="b" d="M305.94,324.34a11.51,11.51,0,0,1,23,.06,11.51,11.51,0,0,1-23-.06Z" transform="translate(-32.91 -194.22)"/><path d="M270.76,345.46a27.55,27.55,0,0,1,10.05-7,26,26,0,0,1,12.58-1.52c3,.32,5.3,1.78,6.18,4.89a5.91,5.91,0,0,1-2.33,6.81,7.5,7.5,0,0,1-4.4,1.29c-12.64-1.44-22.19,8.51-22.2,21.08q0,13.6,0,27.22c0,3.59-1.73,6-4.87,6.84a6.48,6.48,0,0,1-8.11-5.42,14.47,14.47,0,0,1-.07-1.75q0-26.25,0-52.52c0-2.84,1-5.05,3.48-6.39a6.47,6.47,0,0,1,9.47,4.59C270.61,344,270.65,344.57,270.76,345.46Z" transform="translate(-32.91 -194.22)"/></svg>