<?xml version="1.0" standalone="no"?>
<!DOCTYPE svg PUBLIC "-//W3C//DTD SVG 20010904//EN"
 "http://www.w3.org/TR/2001/REC-SVG-20010904/DTD/svg10.dtd">
<svg version="1.0" xmlns="http://www.w3.org/2000/svg"
 width="375.000000pt" height="375.000000pt" viewBox="0 0 375.000000 375.000000"
 preserveAspectRatio="xMidYMid meet">
<metadata>
Created by potrace 1.11, written by Peter Selinger 2001-2013
</metadata>
<g transform="translate(0.000000,375.000000) scale(0.100000,-0.100000)"
fill="#000000" stroke="none">
<path d="M1640 3733 c-563 -73 -1049 -383 -1354 -863 -100 -157 -191 -377
-234 -565 -22 -93 -26 -122 -41 -240 -9 -74 -7 -359 3 -410 3 -16 8 -48 10
-70 3 -22 13 -72 22 -110 9 -39 17 -74 18 -80 9 -43 44 -146 78 -228 358 -877
1325 -1348 2238 -1091 100 28 157 48 166 57 4 4 14 7 22 7 16 0 200 91 282
140 213 126 436 342 585 567 101 152 230 439 251 560 3 15 9 44 14 63 44 171
57 514 26 676 -3 12 -7 39 -10 60 -34 209 -133 466 -259 669 -86 140 -261 337
-393 446 -268 219 -629 375 -960 414 -103 13 -362 11 -464 -2z m1073 -734 c21
-5 53 -24 73 -41 128 -113 56 -324 -115 -336 -95 -7 -170 46 -200 140 -11 34
-25 47 -61 54 -40 8 -217 46 -231 49 -9 2 -32 7 -50 12 -75 20 -73 22 -104
-142 -3 -16 -12 -58 -20 -93 -8 -35 -26 -117 -40 -183 -14 -66 -27 -124 -30
-129 -8 -13 6 -18 61 -25 27 -3 65 -8 84 -11 19 -4 44 -7 55 -8 78 -10 228
-52 302 -87 24 -10 45 -19 48 -19 2 0 37 -19 77 -43 99 -58 101 -59 139 -33
114 77 260 58 352 -44 113 -126 89 -311 -55 -415 -26 -19 -27 -25 -29 -106 -7
-376 -389 -685 -924 -749 -73 -8 -312 -6 -355 4 -14 3 -44 7 -67 10 -191 23
-412 117 -568 240 -176 139 -260 293 -269 494 -3 52 -6 95 -8 96 -106 64 -151
143 -147 257 5 139 118 249 261 255 61 3 75 -1 136 -32 l69 -36 65 40 c133 82
315 147 469 168 22 3 48 7 57 9 9 2 40 4 68 4 79 1 80 3 118 191 14 73 27 135
46 220 11 52 26 118 31 145 6 28 12 55 13 60 1 6 6 24 10 41 7 32 30 46 64 39
9 -2 62 -13 117 -25 55 -12 111 -23 125 -26 14 -2 57 -11 95 -20 39 -9 78 -17
88 -19 10 -2 26 8 39 26 25 33 110 79 147 79 15 0 43 -5 64 -11z"/>
<path d="M2774 2070 c-75 -34 -113 -89 -116 -167 -6 -179 210 -267 334 -136
36 37 58 124 46 174 -12 44 -59 104 -99 124 -46 24 -119 26 -165 5z"/>
<path d="M840 2057 c-49 -17 -62 -26 -93 -68 -37 -49 -46 -123 -23 -182 63
-165 303 -160 359 7 51 151 -93 295 -243 243z"/>
<path d="M1412 1238 c-50 -50 62 -141 227 -184 101 -26 262 -36 346 -21 202
36 273 61 333 117 71 68 9 138 -66 75 -155 -130 -561 -135 -738 -9 -51 36 -82
42 -102 22z"/>
</g>
</svg>
